<?xml version="1.0" encoding="UTF-8"?>
<svg version="1.1" viewBox="0 0 980 1000" width="245" height="250" xmlns="http://www.w3.org/2000/svg">
<path transform="translate(420,28)" d="m0 0h136l27 5 24 5 30 9 31 12 23 10 26 13 25 15 19 13 16 12 12 10 11 9 38 38 7 8 11 12 9 11 13 17 19 29 12 21 8 16 8 17 16 40 9 30 6 24 4 27v144l-4 27-4 20-9 31-13 34-9 21-10 19-8 14-10 16-11 16-10 14-11 14-13 16-12 13-34 34-11 9-12 10-15 11-23 15-25 15-22 12-19 9-15 6-30 10-32 9-21 5-14 3-13 2-36 3h-74l-16-2-20-2-6-2-16-3-20-4-36-11-32-13-18-8-24-12-23-14-27-18-11-8-8-7-8-6-10-9-11-11-8-7-11-11-7-8-9-9-22-28-24-36-12-21-9-17-16-38-10-27-10-33-3-14-2-10-6-36-1-2-2-33v-43l1-18 4-17 3-23 4-24 6-24 11-33 11-27 8-18 10-20 21-35 16-24 9-11 13-16 14-15 39-39 28-22 25-16 35-20 16-8 31-13 24-10 26-8 21-5 28-5z" fill="#FCFCFC"/>
<path transform="translate(731,279)" d="m0 0h4v338l-3 23-6 23-9 24-8 16-9 16-12 17-11 13-9 11-17 17-8 7-13 11-15 11-16 11-16 10-25 14-27 13-28 12-22 8-20-7-26-11-25-12-22-12-20-12-16-11-16-12-13-11-12-11-20-20-11-14-11-15-11-18-9-17-10-26-7-28-2-15v-324l5 2 7 6 5 5 10 8 15 6 15 3 26 3 7 2-2 5-14 8-28 12-25 10-6 2 2 9 9 15 6 11 9 9 1 2h6l5-3 31-9 24-11 26-13 13-8 15-9 12-6 10-6 8-3 8 6 19 8 17 4h15l6-2 3 1 10-1 15-4 26-8 7-1 20 9 14 7 20 9 35 15 32 13 21 8 7 2 7-1 11-17 16-24 1-4-5-2-16-8-21-9-18-6-10-2-12-5-10-6-6-4 3-3 32-6 11-5 14-5 12-8 13-10z" fill="#D52815"/>
<path transform="translate(731,279)" d="m0 0h4v338l-3 23-6 23-9 24-8 16-9 16-12 17-11 13-9 11-17 17-8 7-13 11-15 11-16 11-16 10-25 14-27 13-28 12-22 8-20-7-26-11-25-12-22-12-20-12-16-11-16-12-13-11-12-11-20-20-11-14-11-15-11-18-9-17-10-26-7-28-2-15v-324l5 2 7 6 5 5 10 8 15 6 15 3 26 3 7 2-2 5-14 8-28 12-25 10-6 2 2 9 9 15 6 11 9 9 1 2h6l5-3 9-2 1 96v103l2 18 5 19 6 16 6 14 12 18 10 13 9 10 22 22 10 8 14 11 19 12 18 10 22 12 27 12h11l17-7 18-8 22-12 17-10 15-10 13-10 11-9 12-11 13-13 7-8 10-13 9-14 8-15 6-15 6-20 2-20v-39l-1-165 5 1 21 7 7-1 11-17 16-24 1-4-5-2-16-8-21-9-18-6-10-2-12-5-10-6-6-4 3-3 32-6 11-5 14-5 12-8 13-10z" fill="#191415"/>
<path transform="translate(420,28)" d="m0 0h136l27 5 24 5 30 9 31 12 23 10 26 13 25 15 19 13 16 12 12 10 11 9 38 38 7 8 11 12 9 11 13 17 19 29 12 21 8 16 8 17 16 40 9 30 6 24 4 27v144l-4 27-4 20-9 31-13 34-9 21-10 19-8 14-10 16-11 16-10 14-11 14-13 16-12 13-34 34-11 9-12 10-15 11-23 15-25 15-22 12-19 9-15 6-30 10-32 9-21 5-14 3-13 2-36 3h-74l-16-2-20-2-6-2-16-3-20-4-36-11-32-13-18-8-24-12-23-14-27-18-11-8-8-7-8-6-10-9-11-11-8-7-11-11-7-8-9-9-22-28-24-36-12-21-9-17-16-38-10-27-10-33-3-14-2-10-6-36-1-2-2-33v-43l1-18 4-17 3-23 4-24 6-24 11-33 11-27 8-18 10-20 21-35 16-24 9-11 13-16 14-15 39-39 28-22 25-16 35-20 16-8 31-13 24-10 26-8 21-5 28-5zm47 13-29 2-26 3-27 5-24 6-21 6-30 11-20 9-25 12-24 14-21 14-18 13-11 9-13 11-8 7-13 12-12 12-7 8-12 14-11 14-13 18-15 24-15 26-12 25-11 27-10 31-8 32-6 35-3 30-1 18v29l2 30 4 32 6 30 7 27 11 32 9 22 12 25 11 20 15 24 12 17 11 14 11 13 12 14 30 30 11 9 13 11 16 12 10 7 22 14 21 12 16 8 17 8 28 11 31 10 34 8 31 5 34 3h52l34-3 30-5 27-6 27-8 26-9 25-11 16-8 19-10 19-12 18-12 21-16 14-11 17-16 25-25 9-11 12-14 14-19 8-12 12-19 15-28 12-25 10-26 10-31 7-29 5-28 3-25 1-12 1-38-2-37-4-31-6-31-8-30-11-32-13-30-10-20-12-21-7-11-10-15-10-14-11-14-11-13-12-13-22-22-8-7-15-13-19-14-17-12-21-13-24-13-25-12-25-10-30-10-32-8-28-5-22-3-30-2z" fill="#1C1415"/>
<path transform="translate(421,348)" d="m0 0 11 7 20 8 14 3h15l6-2 3 1 10-1 15-4 26-8 7-1 20 9 14 7 20 9 35 15 32 13 3 2 1 190v14l-2 20-8 26-8 17-10 17-10 13-9 10-7 8-16 16-11 9-13 10-10 7-19 12-25 14-33 15-6 2h-11l-29-13-24-13-21-12-16-11-11-9-13-11-11-10-7-8-8-8-10-13-12-18-6-12-8-21-5-19-2-18v-199l16-5 15-6 25-12 23-12 9-6 12-7 12-6 10-6zm42 54-19 3-21 6-18 8-16 9-14 10-16 15-12 13-9 13-8 13-8 16-6 18-4 19-2 15v20l2 21 3 16 8 24 10 20 10 14 9 11 7 8 8 7 8 8 16 11 14 8 13 6 21 7 16 3 9 1h36l21-3 19-6 16-7 15-8 13-9 10-8 10-9 10-10 8-10 9-14 8-14 8-20 5-20 2-15v-35l-3-19-5-20-7-17-8-15-7-10-13-17-17-17-16-12-18-11-11-5-20-7-21-4-11-1z" fill="#D52815"/>
<path transform="translate(231,239)" d="m0 0h57l13 2 7 3 35 13 14 6 19 5 29 7 1-4 5-6 10-6 20-8 16-4h8l6 3 7-1 5-2h11l9 2 5 3 3 2-5 1-4-1-9-4h-10l-6 4-1 2 6 2 20 11 4 5 2 4v10l-2 5 4 2 2 10-3 11-9 5-4 2-7-4 2-4 2-3h-6l-2 3-5-2-8-5 1-4 4-4h2l2-4 12-5 11-5v-2l-6 1-11 5-4 2-3 3-5 2-7 4-5-1v-2l-6 1-4-6-2-5-16-8-11-6 2-4 6-5v-2l-5 2-6 7-9 2-8 3-10-1-30-7-24-9-20-8-16-6 2 5 10 4 13 6 2 7 1 1-1-7 9 3 1 4-1 3-22-2-12-3-6-3 1-4 3-5h-2l-4 5h-2v2l-3 1-20-8-13-8-9-5h-4l2 4 10 8 19 10 15 6-4 1-14-4-17-10-8-6-9-8-4-2h-2l5 10-2 1 1 4 1 7 1 5-1 1v5l4 1-2-4 1-9-1-5 3-3 5 3-1 4h-2v2h11l9 6 8 10v2h-3l1 7v5h3l-1-9 4-8 1-1 8 1 7 4 3 6 2-4 4-1 3 2v8l-1 2 2 3 5-1v-2l-5-2 2-4 3-4 5 1 1 7 2 1v6l5 1-2-3 1-10 2-2h6v4l-1 3 6 1 1-5 4 1 2 3h5l2-4 5 1 1 4 2 2-1 4 3 3v-9l3-5 4-1 2 6h6l4-6 3 2 2 5 3 2-10 7h-2l-2-6-2-1 1 6 2 1-1 3-17 8h-8v5l-7 3-3-10v-3h-2l3 13-3 1-6-5-3-9 1-2-2-1-1 5h-5l1 4 7 3 2 6 4 3-10 5-2-5-3 1h-8l-2-3-5 2-5-2v-5h-3l-2 5h-6l-2-6h-5l-2 5-8-1-12-5-8-6-3-4 4-3 7-3 5-3v-3h-2l-1 3-8 2-4 2h-6l-7-6-5-10h-4l-1-13v-23l2-10z" fill="#281D1D"/>
<path transform="translate(416,282)" d="m0 0 8 1 17 11 10 9 10 7 1 3-5 5-11 9-14 10-18 10-16 9-24 14-19 11-35 17-16 6-24 7-4 1-11-9-7-12-5-9-4-7v-3l6-1 11 10 3 10 4 2-3-8-6-8-5-5 5-5 16-7 12-5 6-2 4 4 1-4v-3l17-9 10-7 19-10 11-6 3-2 4-1 8-7 11-6 10-7 10-6 8-6z" fill="#292121"/>
<path transform="translate(463,402)" d="m0 0h34l17 2 18 4 22 8 15 8 13 9 14 11 17 17 12 16 8 12 11 23 6 21 3 17 1 7v35l-3 20-5 18-8 19-13 22-8 10-11 12-9 9-17 13-16 10-21 10-18 6-15 3-10 1h-36l-20-3-15-4-18-7-17-9-13-9-9-7-23-23-10-13-8-13-10-21-7-23-3-20-1-13v-20l4-26 6-21 7-16 9-15 12-17 16-17 12-11 15-10 16-9 18-8 23-6zm-2 10-17 3-16 5-24 10-12 8-12 9-10 9-4 3v2h-2l-9 11-9 12-9 16-5 10-7 21-3 13-2 14v30l3 21 5 19 7 16 12 20 10 14 19 19 5 4h2v2l12 8 8 5 17 8 20 7 20 4 14 1h13l22-2 23-5 16-6 21-11 11-8 9-8 8-7 12-13 10-14 10-17 5-11 8-28 3-22v-19l-1-13-4-20-7-21-8-16-9-15-13-16-18-18-11-7-12-8-19-9-24-7-20-3z" fill="#FCE517"/>
<path transform="translate(644,238)" d="m0 0 32 2h59v33l-9 1-1 4-5 6-4 2-4 5-3 1-5-4-3-1 3 5 2 1-2 4-18 10-17 6-16 4-16 3-9 1-10-5-9-3 1-2h2l1-4 1-7-6-1-1 13-17-6-15-6-2-4 1-4-1-7-3 1-2 7-3-1v-6l3-6h8l4 1 41-1 1 13 5-2 2-9 1-2h-2l-1 2-2-2v-3l11-1 1 2-1 10-3 2-1 3 11-2 2-3-7-1v-11l11-2-2 13h6v-6l4-8 4 2 1 3-2 5h6l-1-4v-4l3-3h4l1 8 5-1 11-6 4-2 6-2 2-1-1-13 5-1 1 2v7l5 1-1-2v-15l2-5-17 1-17 9-5 1-1-5-5-1 1 8-8 4-8 1-3-3-1 4-3-1-5-5-4-2-1-4 5-3 5-1 2 6 4 1-6-11-11 3-33 17-14 6-17 5-5 1h-7l1 23-1 6-3 15-2 4-6 1 2 2 2 1v6l-5 12-5 5h-2l-1-2-1 4-18 5-4-2v-2l-3 1-2 6h-3l2-7 4-10h2l2-7 4-4h-2l1-9v-25l-1-13-4-14h4l1-5h-4l-1 3-3-4-1-9 10 2 23 7 14 7 13-2 21-7 30-14 18-8z" fill="#231616"/>
<path transform="translate(565,302)" d="m0 0 9 3 10 5 17 6 17 8 13 5 16 10 10 5 23 5 13 5 16 7 11 6 5 2 1 4-11 17-9 13-6 7h-6l-16-6-11-5-36-14-29-12-14-7 3-5 13-12 9-18h2v-5l-3-1v5l-5 6-4 9-5 5-5 3-5 8-2 4-8-3 1-4 4-6 7-6 6-9v-2l-5 5-10 13-4 5-1 2-6-2 5-10 4-4 3-5 5-4 1-4-6 2-3 5-6 7-5 8-1 3-6-1-1-1 1-7 2-3 6-3 8-11 2-4 2-1 1-4-3 1-8-3-3-2h-4v4l11 2 2 3-8 6-6 8-1 4-4 2-2 6-6-4 2-9 8-19z" fill="#291A1A"/>
<path transform="translate(644,238)" d="m0 0 16 1 45 2v1l-10 1-17 9-5 1-1-5-5-1 1 8-8 4-8 1-3-3-1 4-3-1-5-5-4-2-1-4 5-3 5-1 2 6 4 1-6-11-11 3-33 17-14 6-17 5-5 1h-7l1 23-1 6-3 15-2 4-6 1 2 2 2 1v6l-5 12-5 5h-2l-1-2-1 4-18 5-4-2v-2l-3 1-2 6h-3l2-7 4-10h2l2-7 4-4h-2l1-9v-25l-1-13-4-14h4l1-5h-4l-1 3-3-4-1-9 10 2 23 7 14 7 13-2 21-7 30-14 18-8z" fill="#261C1C"/>
<path transform="translate(457,247)" d="m0 0h8l6 3 7-1 5-2h11l9 2 5 3 3 2-5 1-4-1-9-4h-10l-6 4-1 2 6 2 20 11 4 5 2 4v10l-2 5 4 2 2 10-3 11-9 5-4 2-7-4 2-4 2-3h-6l-2 3-5-2-8-5 1-4 4-4h2l2-4 12-5 11-5v-2l-6 1-11 5-4 2-3 3-5 2-7 4-5-1v-2l-6 1-4-6-2-5-16-8-11-6 2-4 6-5v-2l-5 2-6 7-9 2-7 2 1-5 5-6 10-6 20-8z" fill="#291E1E"/>
<path transform="translate(5,527)" d="m0 0 2 2 3 31 5 32 5 24 8 29 8 23 3 8 6 14 4 10 15 30 14 24 10 16 14 19 10 13 11 13 12 13 33 33 11 9 13 11 19 14 11 7 15 10 14 8 19 10 23 11v2l7 1 12 5 9 3 19 7 42 11 19 4 28 4 38 4v1h-27l-16-2-20-2-6-2-16-3-20-4-36-11-32-13-18-8-24-12-23-14-27-18-11-8-8-7-8-6-10-9-11-11-8-7-11-11-7-8-9-9-22-28-24-36-12-21-9-17-16-38-10-27-10-33-3-14-2-10-6-36-1-2-1-18 1-10z" fill="#F1EDEC"/>
<path transform="translate(420,28)" d="m0 0h12v2l-19 2-35 6-21 6-11 3-32 11-17 7-7 3-29 14-21 12-16 10-14 10-11 8-13 10-11 9-11 10-8 7-23 23-7 8-10 11-9 12-11 14-19 29-7 11-5 10-10 19-11 24-6 14-12 36-8 32-5 27-6 51-2 2-2-16 2-12 2-8 3-23 4-24 6-24 11-33 11-27 8-18 10-20 21-35 16-24 9-11 13-16 14-15 39-39 28-22 25-16 35-20 16-8 31-13 24-10 26-8 21-5 28-5z" fill="#EEE9E9"/>
<path transform="translate(530,28)" d="m0 0h26l27 5 24 5 30 9 31 12 23 10 26 13 25 15 19 13 16 12 12 10 11 9 38 38 7 8 11 12 9 11 13 17 19 29 12 21 8 16 8 17 16 40 9 30 6 24 4 27v20l-2-2-4-26-5-26-4-17-4-14-9-27-8-20-11-24-14-27-16-26-7-10-10-14-13-17-15-16-7-8-27-27-11-9-11-10-14-10-11-8-10-7-16-10-11-7-14-7-19-10-20-9-24-9-21-7-26-7-29-6-37-5z" fill="#F2ECEC"/>
<path transform="translate(565,302)" d="m0 0 9 3 10 5 17 6 14 7-1 2h-2v5l-5 6-4 9-5 5-5 3-5 8-2 4-8-3 1-4 4-6 7-6 6-9v-2l-5 5-10 13-4 5-1 2-6-2 5-10 4-4 3-5 5-4 1-4-6 2-3 5-6 7-5 8-1 3-6-1-1-1 1-7 2-3 6-3 8-11 2-4 2-1 1-4-3 1-8-3-3-2h-4v4l11 2 2 3-8 6-6 8-1 4-4 2-2 6-6-4 2-9 8-19z" fill="#251717"/>
<path transform="translate(464,319)" d="m0 0 7 1 8 4 11 8 3 3 7 2 1 1-1 7-7 8-4 5-10 5-8 1-4-2v-4l-2 4-11-2-10-3-13-7 2-2 10-5 7-6 2-6h7v-7z" fill="#271D1D"/>
<path transform="translate(942,638)" d="m0 0h2l1 9-9 25-12 29-8 16-11 21-8 13-15 22-10 14-11 14-13 16-12 13-34 34-11 9-12 10-15 11-23 15-25 15-22 12-19 9-15 6-30 10-32 9-21 5-14 3-13 2-36 3h-18v-1l42-4 13-2 15-2 8-2 20-4 23-6 36-12 24-10 25-12 22-12 13-8 6-4 11-7 12-9 17-13 14-12 13-12 29-29 7-8 9-10 14-19 11-15 11-18 9-15 11-20 15-33 11-30z" fill="#F8F5F5"/>
<path transform="translate(238,239)" d="m0 0h50l13 2 7 3 35 13 14 6 19 5 29 7-1 2-10-1-30-7-24-9-20-8-16-6 2 5 10 4 13 6 2 7 1 1-1-7 9 3 1 4-1 3-22-2-12-3-6-3 1-4 3-5h-2l-4 5h-2v2l-3 1-20-8-13-8-9-5h-4l2 4 10 8 19 10 15 6-4 1-14-4-17-10-8-6-9-8-3-2z" fill="#2E2222"/>
<path transform="translate(676,113)" d="m0 0 6 3 1 6-3 5 7-3 2-1 9 1 3 3-1 3-11 3-1 5 1 16 5-2 20-15 6 1 4 5-1 8-3 10-4 15-5-3-3-3-3-6-3-2h-8l-14-8-3-4v-13l-3 1-5 8-5-1-4-2 1-5 9-16 4-7z" fill="#1D1415"/>
<path transform="translate(550,74)" d="m0 0 8 1 2 2-1 9 9-7h10l2 1-2 4-8 5v6l5 12 3 1 3-4 4-7 10-13 8 1 3 3 1 11v22l-6-1-5-4-3-3-7-1v2l-3 1-17-4-5-8-3-6-2-1-1 10-2 2-8-1-1-5z" fill="#1F1415"/>
<path transform="translate(515,912)" d="m0 0h12l1 7-1 1h-7v24l-9 1-1-1-2-21-9-2-1 24-1 1h-8l-7-10-3-5-1 14-1 1h-6l-3-2v-12l1-17 1-2 9 1 8 15 2-15z" fill="#1E1415"/>
<path transform="translate(588,558)" d="m0 0h2l2 10v16l-4 11-9 12-6 5-8 3-11 1-6-2 1-4 15-1 10-5 6-5 1-2v-12h-5l-10 8-8 6-7 4-4 1h-15l-8-3 1-4 19-1 11-4 5-5 12-13 11-12z" fill="#FCE517"/>
<path transform="translate(518,70)" d="m0 0h11l7 4 4 8v10l-4 8-6 4-3 1h-7l-8-3-5-7-1-4v-7l3-8 6-5z" fill="#1D1415"/>
<path transform="translate(325,98)" d="m0 0h9l6 4 4 5 2 7v7l-4 6-6 5-3 1h-10l-6-4-5-8-1-9 3-7 6-5z" fill="#1D1415"/>
<path transform="translate(857,301)" d="m0 0h7l6 3 5 7 1 3v10l-4 6-8 5-3 1h-7l-6-3-4-5-3-6v-8l3-6 10-6z" fill="#1C1415"/>
<path transform="translate(449,69)" d="m0 0h7l7 3 5 6 1 4v10l-3 6-6 5-3 1h-10l-7-4-4-7v-13l4-7 5-3z" fill="#1B1415"/>
<path transform="translate(161,215)" d="m0 0h10l6 4 6 7 1 4v7l-4 6-7 6-2 1h-8l-8-4-4-5-2-4v-10l4-7z" fill="#1D1415"/>
<path transform="translate(844,265)" d="m0 0 4 1 6 9 2 5 1 10-4 6-10 6h-8l-8-6-8-13 1-4 16-9z" fill="#1D1415"/>
<path transform="translate(616,888)" d="m0 0h9l5 3 5 8 1 3v8l-5 8-9 4-9-1-6-5-3-7v-12l5-6z" fill="#1E1415"/>
<path transform="translate(420,461)" d="m0 0 10 2 4 2-1 4 1 1v9l-3 8-5 3-10 1-3-6 9-3 5-5 2-9-2-2-4-1v6l-5 5-9 3-7-1v-5l5-1h6v-4l-9 1-7 4v7l4 5 5 2-1 3-15-1 3 10-1 2h-7l-4-6-1-9 4-8 8-6 5-2 9-6z" fill="#FCE517"/>
<path transform="translate(346,534)" d="m0 0 6 1 7 8 3 7-1 6-5 9-7 7-2 4-1 10 2 5v4l-4 1-4-5-1-6v-8l2-6h2l2-4h2l2-5 3-6-4 1-5 5-5 10-1 1-1 8-5-1-1-2v-11l6-12 7-2-1-5-6-7 1-2 5 1 5 3z" fill="#FCE517"/>
<path transform="translate(578,515)" d="m0 0 10 1 1 3-9 3v10l5 10 4 4-3 5-8 8-3 1h-10l-5-2-1 7-14 14-7 1 1-6 9-10 7-5 3-1 1-11 5-1 7 2-2-6v-6l4-2-1-3v-9l4-6z" fill="#FCE517"/>
<path transform="translate(623,92)" d="m0 0 5 1 4 2 4 18h2l2-9 2-4 8 1 1 1-1 7-8 20-3 4-5-1-4-2-2-9-1-8h-2l-4 11-5 1-4-2 1-7 9-23z" fill="#1C1415"/>
<path transform="translate(311,872)" d="m0 0 6 1 13 7 3 3-1 8-6 16-2 2-10-1-14-7-1-2 8-19z" fill="#1E1415"/>
<path transform="translate(738,153)" d="m0 0 5 1 10 9 6 8-1 5-5 4-4 1-2 9-4 6-4-2-5-4 2-4 2-2v-5l-2-2h-5l-2 5-3 2-6-4-1-3 10-13z" fill="#1E1415"/>
<path transform="translate(428,566)" d="m0 0h6l-2 4-14 7-10 7-9 13-3 8v12l5 12 5 5v2l5 2 1 4-1 1h-6l-7-6-7-11-3-9-1-6v-11l4-11 4-6 4-5 10-7 12-4z" fill="#FCE517"/>
<path transform="translate(467,577)" d="m0 0h4l-1 5-3 6v9l3 10 4 5v2l5 2 8 7 9 5 6 2 6 1h13l10 1v5l-6 3-13 1-5-3-9-3-9-4-10-4-8-5-6-5-6-8-2-6v-7l3-11 4-6z" fill="#FCE517"/>
<path transform="translate(417,73)" d="m0 0h9l1 5 3 17 2 10-3 1h-8l-1-1-2-10-7 1-1 2 1 11-9 1-2-2-4-23v-7l1-1h8l2 3v7l9-1v-12z" fill="#1E1415"/>
<path transform="translate(652,874)" d="m0 0 6 1 3 3 2 6h-2v3l6 5 4 7-6 4h-5l-2-8-7 2 1 13-6 1-4-4-10-24 4-3 12-5z" fill="#1E1415"/>
<path transform="translate(516,561)" d="m0 0 3 2 3 12 3 7 9 3 8-1 10-5 11-11 2-3h3l-1 4-8 13-8 8-10 5-14-1-11-3-7-6-3-6v-7l3-5z" fill="#FCE517"/>
<path transform="translate(381,900)" d="m0 0 9 1 13 4 2 2v8l-3 6v13l-1 2-9-1v-11l-7-1-2 9-8-1-2-1 4-19 3-10z" fill="#1C1415"/>
<path transform="translate(572,903)" d="m0 0h10l4 10-1 4h-2v2l4 1 4 9-1 3-9 1-3-8-7-1 1 11-3 2h-6l-2-5-5-25 5-2z" fill="#1E1415"/>
<path transform="translate(586,524)" d="m0 0 9 1 8 4 5 8v2l4 2 9 7 6 7 5 10 3 9v9l-2 4-5 3h-5v-7l3-5 1-7-3-8-8-9-5-4-5-5-1-2-12-2-9-3-1-1v-11z" fill="#FCE517"/>
<path transform="translate(644,238)" d="m0 0 16 1 45 2v1l-10 1-17 9-5 1-1-5-5-1 1 8-8 4-8 1-3-3-1 4-3-1-5-5-4-2-1-4 5-3 5-1 2 6 4 1-6-11-11 3-9 5-2-1 8-5 9-4z" fill="#261A1A"/>
<path transform="translate(259,131)" d="m0 0h10l4 3-1 5-3 2h-11l-1 7 4 6 3 2 5-1 4-8 3-3h4l1 8-3 6v3l5 3v5l-8 4h-2l1-4 2-5-9 2h-8l-6-4-5-6-2-6 1-9 6-7z" fill="#221515"/>
<path transform="translate(772,182)" d="m0 0 5 1 5 4-1 5-6 15-7 13-5-3-3-3 1-5-6-5-8-3-3-4 16-9z" fill="#1E1415"/>
<path transform="translate(422,598)" d="m0 0h2l1 12 7 14 7 12v10l-2 5-5 1-8-7-1-1v-8l-7-7-4-9 1-6 4-10z" fill="#FCE517"/>
<path transform="translate(97,308)" d="m0 0 18 2 14 2 1 3-4 6-6 3-2 4 1 8-4 6-3-1-7-8-9-9-5-7 2-5z" fill="#1E1415"/>
<path transform="translate(224,154)" d="m0 0 6 1 12 7 12 8 2 3-6 4-8 1-3 1-3 9-4 4h-2l-5-12-6-17 1-5z" fill="#1C1415"/>
<path transform="translate(287,115)" d="m0 0h6l16 15 7 7-1 3-2 1h-10l-6 4-3 6-7 1-2-8-3-23 1-3z" fill="#1D1415"/>
<path transform="translate(814,225)" d="m0 0 5 1 9 12 4 5-2 4-4 1-5-5-3-5-3-1 1 6 4 6-1 4-6-1-6-7-3 1 2 5 1 3 3 1 2 3-1 5-4 1-8-8-7-9-1-4 9-8z" fill="#1F1415"/>
<path transform="translate(374,82)" d="m0 0h9l3 1 2 3v4l-8 2-7-1v3l4 1 7-1 7 2 3 5v7l-4 5-10 4h-6l-6-4-2-5 3-1 11 1 4-2v-2h-14l-5-3-3-5 1-7 5-5z" fill="#1F1415"/>
<path transform="translate(189,186)" d="m0 0 9 1 2 4-4 5h-10l-1 7 6 7 7 1 2-6 3-7 4-2 4 7-1 7-7 8-5 3-6 1-7-2-9-10-1-9 3-7 5-5z" fill="#1E1415"/>
<path transform="translate(140,244)" d="m0 0 4 1 1 4-8 6-3 6 6-3 8-6 5-1 6 3 2 3v9l-4 7-8 6h-5l-3-3 2-4 9-6-1-4-5 3-9 6-5-1-5-4-1-7 5-10 6-4z" fill="#1E1415"/>
<path transform="translate(116,275)" d="m0 0h7l1 4-9 9v2l4-1 9-8 2-1h6l5 4 2 7-3 8-6 7-9 1-1-5 10-9v-2l-4 1-10 8-6 1-6-4-2-6 2-8 6-7z" fill="#1D1415"/>
<path transform="translate(545,908)" d="m0 0h8l1 1v6l-13 3-1 3 13-1 1 1v5l-9 3h-3l-1 4 15-2 2 4v4l-10 2-15 1-1-1-2-18v-12l7-2z" fill="#1F1415"/>
<path transform="translate(543,536)" d="m0 0 11 2 3 4v6l-4 7-11 9-4 5-2 1h-11l-1-1v-9l7-10 3-3 4-2 3-8z" fill="#FCE517"/>
<path transform="translate(341,885)" d="m0 0 22 8 1 2h-2l-2 5-5-1-4-2h-4v2l9 5v5l-5 1-4-2h-5l5 5 7 3v7l-7-1-17-7-1-2 6-16 4-10z" fill="#1E1415"/>
<path transform="translate(419,908)" d="m0 0h7l3 2 3 16 2 16h-7l-3-3-1-2-10-2-1 4h-7l-2-2 10-21z" fill="#1F1415"/>
<path transform="translate(756,895)" d="m0 0m-1 1m-1 1m-1 1m-2 1h2l-1 3-19 12-17 10-22 12-19 9-15 6-30 10-32 9-21 5-14 3-13 2-36 3h-18v-1l42-4 13-2 15-2 8-2 20-4 23-6 36-12 24-10 25-12 22-12 13-8 6-4z" fill="#FDFDFD"/>
<path transform="translate(669,317)" d="m0 0 3 1 1 9v15h-8l-13-5-11-6-7-5 3-3z" fill="#D42915"/>
<path transform="translate(494,564)" d="m0 0 6 2 4 5 1 22 3 9 8 11v2h-6l-9-8-8-15-5-15v-7l4-5z" fill="#FCE517"/>
<path transform="translate(294,943)" d="m0 0 6 1 12 5 9 3 19 7 42 11 19 4 28 4 38 4v1h-27l-16-2-20-2-6-2-16-3-20-4-36-11-30-12z" fill="#FAF8F8"/>
<path transform="translate(568,280)" d="m0 0h8l4 1h22v1h-5l1 9-4 9-1 5 4 1 2 2-6-1-18-7-2-4 1-4-1-7-3 1-2 7-3-1v-6z" fill="#251515"/>
<path transform="translate(564,616)" d="m0 0 9 1 1 1 21-1 1 3-8 23-4 3-6 2-6 3h-5v-7l13-7 4-6v-2l-9-2-12-3-3-2v-5z" fill="#FCE517"/>
<path transform="translate(455,490)" d="m0 0h6l6 5 1 7-6 10-7 5-7 1v-3l2-1 3-5 1-5-5 2-3 6-2 7-4 2h-6l1-7 6-9 10-10z" fill="#FCE517"/>
<path transform="translate(474,69)" d="m0 0h27l3 2-1 6-2 2h-6l-2 23-1 1h-8l-1-1v-22l-8-3-1-2z" fill="#1C1415"/>
<path transform="translate(464,539)" d="m0 0 4 1-1 9-7 8-8 5-32 2-16 5-5 1 2-4 6-4 11-4 30-6 8-4z" fill="#FCE517"/>
<path transform="translate(790,198)" d="m0 0 4 1 11 12 6 7-4 5h-4l-2-4-4 1-10 9-5 4-4-2-4-3 2-4 11-11 3-2-1-4-2-2v-5z" fill="#1D1415"/>
<path transform="translate(621,592)" d="m0 0 13 4-2 9-3 8-2 6-3 2h-3l2 3v6l-4 2-5-5-3-4 3-11 3-9 2-10z" fill="#FCE517"/>
<path transform="translate(420,28)" d="m0 0h12v2l-19 2-35 6-21 6-11 3-32 11-17 7-4-1 4-3 22-9 15-6 30-9 30-6 12-2z" fill="#EDEBEB"/>
<path transform="translate(472,593)" d="m0 0 3 1 6 10 6 5 14 8 8 2h8l3 1-2 4-2 3h-13l-10-3-8-5-7-6-6-11-1-8z" fill="#FCE517"/>
<path transform="translate(353,577)" d="m0 0 4 2 4 11 8 19 1 8v10l-3-1-4-8-1-3-5-4-5-12-2-12 2-9z" fill="#FCE517"/>
<path transform="translate(289,329)" d="m0 0 15 1 13 2 3 1-2 5-14 8-7 3h-5l-1-1-1-14z" fill="#D52B15"/>
<path transform="translate(382,587)" d="m0 0h4l-1 7-2 9 2 4-1 7-2 10-7 7-5-1v-3l5-4 3-7-6-3-3-13 1-4h9v-6z" fill="#FCE517"/>
<path transform="translate(469,554)" d="m0 0 4 1v8l-2 7-8 5-21 10-5 1-2-1 1-5 6-2 1-3 11-6 11-9z" fill="#FCE517"/>
<path transform="translate(428,597)" d="m0 0h3l5 10 5 5 6 4 5 8v8l-5 6-4-1-1-1-2-10-11-14-1-2z" fill="#FCE517"/>
<path transform="translate(704,363)" d="m0 0 6 2 10 4-1 4h-2l-2 7-6 8h-2l-2 4-7 9-3 6h-3l-2-5-7-2v-4l4 1 2 2h5l5-7-1-2-7-1v-3l5-3 3-8-1-3 6-1-1 4-3 5-3 8 8-1-1-3-2-1v-2h4v2l3-2-1-8-3-3z" fill="#FCFCFC"/>
<path transform="translate(449,584)" d="m0 0h6l-1 16-3 9-2 1h-7l-2-1-4-10 1-7 5-5z" fill="#FCE517"/>
<path transform="translate(615,331)" d="m0 0 4 1 3 4-2 6-8 10-8 7-6 8-1 2-6-1-3-3 7-8 9-8 9-16z" fill="#211415"/>
<path transform="translate(204,170)" d="m0 0 4 2 10 11 7 9 2 1-1 4-6 4-4-2-13-16-4-4 1-4z" fill="#1C1415"/>
<path transform="translate(425,580)" d="m0 0h3l-1 5-5 5-10 13-7 14-5-1v-9l3-8 7-9 6-5z" fill="#FCE517"/>
<path transform="translate(470,512)" d="m0 0 2 1-1 5-6 12-5 5-8 2h-16v-3l16-8 10-7z" fill="#FCE517"/>
<path transform="translate(720,368)" d="m0 0 5 1 1 4-11 17-9 13-6 7h-6l-1-3h2l2-6 7-9 5-5 6-8 2-6 2-1z" fill="#1D1415"/>
<path transform="translate(454,913)" d="m0 0h9l1 1-1 20-1 10-1 1-9-1v-12l1-14z" fill="#1D1415"/>
<path transform="translate(367,895)" d="m0 0 8 2 2 1-3 10-5 15-2 5-6-1-3-2 4-16z" fill="#201415"/>
<path transform="translate(943,369)" d="m0 0 5 5 6 21 4 20 2 16v20l-2-2-4-26-5-26-4-17-2-6z" fill="#F5F3F3"/>
<path transform="translate(591,897)" d="m0 0h6l5 17 3 13-5 2h-4l-4-10-5-17 1-4z" fill="#1E1415"/>
<path transform="translate(425,505)" d="m0 0h3v6l1 5-5 3-8 7-7 9-4-1-5-10 2-2h6l7-5-1-8h8z" fill="#FCE517"/>
<path transform="translate(958,557)" d="m0 0h1l1 6v12l-4 27-4 20-4 14-4 1v-7l2-5 3-14 6-31 2-21z" fill="#C3B7B6"/>
<path transform="translate(5,527)" d="m0 0 2 2 3 31 5 32 2 10-1 8-2-3-2-6-2-15-3-16-2-12-1-2-1-18 1-10z" fill="#F0E5E4"/>
<path transform="translate(628,255)" d="m0 0 9 1 5 4 4 2-9 2-2-6h-2l-3 8-30 5h-11l1-2 15-5 13-7 4-1 3 9h2z" fill="#352626"/>
<path transform="translate(507,591)" d="m0 0 4 1 13 11 5 3 14 3-1 4-5 2h-12l-8-6-4-4-4-7z" fill="#FCE517"/>
<path transform="translate(479,562)" d="m0 0 4 1 1 1 1 18 3 12v5l-4-1-5-6-3-7-1-13 3-9z" fill="#FCE517"/>
<path transform="translate(445,539)" d="m0 0 3 1v5l-9 4-17 5h-7l-1-1v-5l9-4 12-3z" fill="#FCE517"/>
<path transform="translate(555,629)" d="m0 0 23 1 1 2-5 5-9 3h-7l-14-4v-4l4-2z" fill="#FCE517"/>
<path transform="translate(16,402)" d="m0 0h1l-1 11-3 15-6 51-2 2-2-16 2-12 2-8 3-23 3-19z" fill="#FCFCFC"/>
<path transform="translate(675,351)" d="m0 0 13 5 6 2v2h6l2 3-7 2 1 5 1 2-6-1-5-3-6-2 1-4 2-3-1-2h-7l-5 4h-2l1-4 4-5z" fill="#FDFDFD"/>
<path transform="translate(604,550)" d="m0 0 5 2 8 9 5 8v8l-4 1-4-2-6-12-4-5-1-8z" fill="#FCE517"/>
<path transform="translate(382,670)" d="m0 0 13 2 4 4 1 6-9 3-7-1-4-6h5v-2h-7l-2-3 2-2z" fill="#FCE517"/>
<path transform="translate(576,664)" d="m0 0h4l-1 6-2 3-9 3-16 8-2-1 1-4 8-8 8-4z" fill="#FCE518"/>
<path transform="translate(725,242)" d="m0 0 4 2v12l-1 1h-5v2h-3l1 4 9-1-1 6-7-1-9-2v-3l4-4h4l2-4 2-6v-2h-5l1 9-1 1-8-1v-2l5-3-2-7z" fill="#FDFDFD"/>
<path transform="translate(448,78)" d="m0 0h7l4 4v10l-3 4h-6l-4-4-1-3v-7z" fill="#FDFDFD"/>
<path transform="translate(326,106)" d="m0 0 5 1 4 5 1 2v7l-5 4-5-1-5-8 1-7z" fill="#FDFDFD"/>
<path transform="translate(521,78)" d="m0 0 6 1 3 4v7l-3 5-3 2-5-1-3-4 1-10z" fill="#FDFDFD"/>
<path transform="translate(460,463)" d="m0 0 4 1v12l-3 6h-4l1-9-10 1-1-1v-8l1-1z" fill="#FCE517"/>
<path transform="translate(696,363)" d="m0 0h8l3 8 3 5v5l-4 2-4-2v2l3 1v3l-2 1h-6l1-5 3-7 3-5-6 1-4-4 1-4z" fill="#201415"/>
<path transform="translate(561,694)" d="m0 0 3 1-3 5-14 8-5 4h-4l1-8 2-4 13-5z" fill="#FCE517"/>
<path transform="translate(861,311)" d="m0 0 5 1 2 2v6l-6 5-9 1-3-3v-6l5-4z" fill="#FDFDFD"/>
<path transform="translate(162,224)" d="m0 0 6 1 6 5 1 6-5 5-6-2-5-4-1-7z" fill="#FDFDFD"/>
<path transform="translate(615,896)" d="m0 0h6l5 6 1 8-5 4-5-1-4-6-1-6z" fill="#FDFDFD"/>
<path transform="translate(455,640)" d="m0 0 5 1 5 3 9 3h9l2 1-1 4-7 3-9-1-9-6-4-6z" fill="#FCE517"/>
<path transform="translate(351,42)" d="m0 0m-8 1 7 1-4 3-32 11-17 7-4-1 4-3 22-9 15-6z" fill="#FAF8F8"/>
<path transform="translate(419,648)" d="m0 0 4 2 6 7 6 3 1 1v6l-5 1-6-4-5-5-3-5 1-5z" fill="#FCE517"/>
<path transform="translate(942,638)" d="m0 0h2l1 9-9 25-3 7h-1l-1-8 8-22z" fill="#D7CCCB"/>
<path transform="translate(432,682)" d="m0 0 4 2v12l-1 2-9 3-7-1-2-3 8-3 4-4 2-7z" fill="#FCE517"/>
<path transform="translate(415,660)" d="m0 0 5 3 4 4v2h2v2l4 2 2 4-1 1h-8l-2-4-4-2-4-5-1-5z" fill="#FCE517"/>
<path transform="translate(547,520)" d="m0 0h9l3 6v5l-1 1h-11l-3-3 1-7z" fill="#FCE517"/>
<path transform="translate(597,282)" d="m0 0h5l1 5-3 3 5 3-5 5v2h4l-1 4-4 3-6-2 1-7 3-7z" fill="#FDFDFD"/>
<path transform="translate(843,278)" d="m0 0 4 1 1 1-1 7-5 4-6 1-5-4 1-4z" fill="#FDFDFD"/>
<path transform="translate(566,974)" d="m0 0m-9 1h9v2l-6 2-46 4h-18v-1l42-4 13-2z" fill="#FAF9F9"/>
<path transform="translate(536,692)" d="m0 0 3 1-3 1-1 3-8 5-7 9-1 2h-3v-8l3-6 10-5z" fill="#FCE517"/>
<path transform="translate(437,467)" d="m0 0 5 1 3 3 2 5-1 8-2 3h-5l-1-1-1-14-1-2z" fill="#FCE517"/>
<path transform="translate(662,353)" d="m0 0 3 3-2 4-3 7-8 7-10 10-2 1 1-5 7-10 11-9 2-3z" fill="#FDFDFD"/>
<path transform="translate(619,331)" d="m0 0 6 1-1 9-8 10-5 5-11 13h-3l2-5 9-10 5-4 7-10 1-4z" fill="#FDFDFD"/>
<path transform="translate(287,376)" d="m0 0 5 1 1 4h-7l-1 4 13 12 2 1v2l-5 1-5-4-6-9-5-7v-4h7z" fill="#FDFDFD"/>
<path transform="translate(461,631)" d="m0 0 6 2 12 6 9 1-1 4h-8l-13-4-6-5z" fill="#FCE517"/>
<path transform="translate(5,527)" d="m0 0 2 2 2 19v12l-3 2-2-6-1-18 1-10z" fill="#EEEAE9"/>
<path transform="translate(497,637)" d="m0 0 5 1 7 3-2 4-8 3h-8v-5l5-5z" fill="#FCE517"/>
<path transform="translate(635,303)" d="m0 0h5l-1 5-3 2 5 1 6-3 1 2-2 5-5 1-3-1-2 1h-6l1-8 2-4z" fill="#FDFDFD"/>
<path transform="translate(24,370)" d="m0 0 1 4-7 27-4 3 1-10 5-20z" fill="#EEE0DF"/>
<path transform="translate(400,686)" d="m0 0 6 1 7 8v2l-7-1-6-3-8-2v-4z" fill="#FCE517"/>
<path transform="translate(378,34)" d="m0 0h5l-3 3-8 3-19 5-6-1v-2l22-6z" fill="#D8CECD"/>
<path transform="translate(951,606)" d="m0 0 2 2v10l-5 18-4 1v-7l2-5 3-14z" fill="#EAE4E3"/>
<path transform="translate(695,283)" d="m0 0 4 1-1 4-2 1v9l-1 1h-5l1-9-1-1-5 8h-2l1-8 9-5z" fill="#FDFDFD"/>
<path transform="translate(381,286)" d="m0 0 3 2 2 5 3 2-10 7h-2l-3-9 4-2z" fill="#201415"/>
<path transform="translate(550,436)" d="m0 0h4l4 10 2 4v5l-1 1h-5l-1-4 1-4-4-4z" fill="#FCE517"/>
<path transform="translate(648,274)" d="m0 0 1 2-3 12-8-1v-11z" fill="#251515"/>
<path transform="translate(572,594)" d="m0 0 4 1-1 6-5 3-10 1 2-6z" fill="#FCE517"/>
<path transform="translate(258,273)" d="m0 0 4 1 5 8v8l-4 1-5-12-1-5z" fill="#FDFDFD"/>
<path transform="translate(172,136)" d="m0 0 2 1-6 7-8 7-35 35v-3z" fill="#3A2322"/>
<path transform="translate(442,255)" d="m0 0 6 1 1 3-3 3-9 2h-2v-2l-2-1v-3z" fill="#FBF6F6"/>
<path transform="translate(434,494)" d="m0 0h7l-1 4-5 2h-9l-7-2 1-3z" fill="#FCE517"/>
<path transform="translate(566,682)" d="m0 0h5l-2 5-11 6-5-1 2-5z" fill="#FCE51E"/>
<path transform="translate(522,452)" d="m0 0 5 1v7l-3 4h-6l-1-1 1-7z" fill="#FCE517"/>
<path transform="translate(691,260)" d="m0 0 4 2-1 6-4 3-9 2-4 2v-5l5-2 6-2 1-5z" fill="#261515"/>
<path transform="translate(583,284)" d="m0 0h5l3 6v5l-1 1h-9v-3z" fill="#FDFDFD"/>
<path transform="translate(674,282)" d="m0 0 4 2v13l-5 3-2-1 2-9-6-2 4-4z" fill="#FDFDFD"/>
<path transform="translate(508,487)" d="m0 0 5 1 3 3v5l-2 1-9-1-2-4z" fill="#FCE517"/>
<path transform="translate(694,360)" d="m0 0h6l2 3-7 2 1 5 1 2-6-1-5-3-6-2 2-4 2-1 1 3h7z" fill="#FDFDFD"/>
<path transform="translate(819,259)" d="m0 0 5 1 3 5v5l-1 1h-6l-3-4v-6z" fill="#1D1415"/>
<path transform="translate(574,654)" d="m0 0h6v4l-14 7-4-1 2-4 7-5z" fill="#FCE517"/>
<path transform="translate(538,324)" d="m0 0 3 1-2 12-2 2-6-5v-7z" fill="#FDFDFD"/>
<path transform="translate(457,618)" d="m0 0 5 1 9 8 1 4-6-1-5-2-3-3z" fill="#FCE517"/>
<path transform="translate(582,313)" d="m0 0 5 1 3 3 8 2-2 4-6 7h-2v-5l2-6h-5l-3-4z" fill="#FDFDFD"/>
<path transform="translate(310,308)" d="m0 0 5 1 4 5 2 1-1 5-5 1-2-2-1-4-4-2 1-4z" fill="#FDFDFD"/>
<path transform="translate(522,496)" d="m0 0 7 1 3 2v3h-2l-1 3-5 1-4-2v-6z" fill="#FCE517"/>
<path transform="translate(954,421)" d="m0 0h2l3 3 1 7v20l-2-2-4-26z" fill="#FDFDFD"/>
<path transform="translate(671,365)" d="m0 0 1 3-5 5h-2l-2 4-5 5-8 7-1-3 8-7 8-11z" fill="#FDFDFD"/>
<path transform="translate(452,261)" d="m0 0h5l1 6-7-1-13 8-6 1 1-3 10-5z" fill="#FDFDFD"/>
<path transform="translate(538,505)" d="m0 0 6 1 4 3-1 4-3 1h-7l-2-3 1-4z" fill="#FCE517"/>
<path transform="translate(532,703)" d="m0 0h2v7l-3 6-5 1-1-4 2-8z" fill="#FCE517"/>
<path transform="translate(958,557)" d="m0 0h1l1 6v12l-1 9-4 2 1-15 1-12z" fill="#FDFDFD"/>
<path transform="translate(551,471)" d="m0 0 6 1 1 1v7l-2 2-6-1-1-1v-7z" fill="#FCE517"/>
<path transform="translate(628,255)" d="m0 0 9 1 5 4 4 2-9 2-2-6h-2l-3 8-4-1z" fill="#311615"/>
<path transform="translate(609,282)" d="m0 0h7l1 4-3 3h-2v4h3v2l-6 1-1-13z" fill="#FDFDFD"/>
<path transform="translate(637,278)" d="m0 0 2 1v6l-1 2h7v3l-4 2-9 1 1-4 3-1v-9z" fill="#FDFDFD"/>
<path transform="translate(467,267)" d="m0 0 3 1-5 5-12 3-1 1h-5l1-4 4-1 1 1 1-3h7z" fill="#FDFDFD"/>
<path transform="translate(490,463)" d="m0 0 4 2 2 3-1 4-2 2-5-1-2-2v-5z" fill="#FCE517"/>
<path transform="translate(707,268)" d="m0 0 5 1-1 4-4 2-1 3 6 2 3 2v3l-4-1-6-4-2-9z" fill="#FDFDFD"/>
<path transform="translate(636,355)" d="m0 0v3l-7 11-3 2-3 6h-2l1-4 1-1 1-7z" fill="#FCFAFA"/>
<path transform="translate(608,299)" d="m0 0h6l1 5-3 7-3 1-2-1v-8z" fill="#FDFDFD"/>
<path transform="translate(411,677)" d="m0 0 5 1 2 5v7l-5-1-3-5z" fill="#FCE517"/>
<path transform="translate(446,647)" d="m0 0 5 1 2 2-1 5-3 2h-5l-1-5z" fill="#FCE517"/>
<path transform="translate(596,334)" d="m0 0 1 3-4 6-8 9-5 2 6-9 8-10z" fill="#FDFDFD"/>
<path transform="translate(644,292)" d="m0 0h9v3l-2 1h-7l-2-1-2 4-7 1 1-5 9-2z" fill="#FDFDFD"/>
<path transform="translate(344,268)" d="m0 0 8 1 16 4-3 2-15-2-8 1v-3z" fill="#351615"/>
<path transform="translate(483,247)" d="m0 0h11l9 2 5 3 3 2-5 1-4-1-9-4-10-1z" fill="#281515"/>
<path transform="translate(294,943)" d="m0 0 6 1 12 5 3 3-4 1-15-6z" fill="#FDFDFD"/>
<path transform="translate(513,430)" d="m0 0 5 1v5l-5 3-5-1 1-5z" fill="#FCE517"/>
<path transform="translate(659,297)" d="m0 0 5 1-1 4-4 10-2 1-1-4 1-9z" fill="#FDFDFD"/>
<path transform="translate(600,320)" d="m0 0 7 2-2 4-5 5-3 1-5-2v-2h6l2-3z" fill="#FDFDFD"/>
<path transform="translate(559,460)" d="m0 0 4 1-1 5-2 1h-7l-1-3 3-3z" fill="#FCE517"/>
<path transform="translate(701,371)" d="m0 0h3l-1 4-3 5-2 4v5h-7v-3l5-3 3-8-1-3z" fill="#FDFDFD"/>
<path transform="translate(331,262)" d="m0 0 9 3 1 4-1 3-7-1z" fill="#291515"/>
<path transform="translate(394,31)" d="m0 0 6 1v2l-15 3h-5l4-4z" fill="#FDFDFD"/>
<path transform="translate(496,477)" d="m0 0 5 1 2 4-3 4h-5v-7z" fill="#FCE51B"/>
<path transform="translate(342,367)" d="m0 0h6l2 1 1 6-4 2-5-5z" fill="#FDFDFD"/>
<path transform="translate(275,298)" d="m0 0 4 1 1 4-7 3-1 1h-5v-3l1-1h5z" fill="#FDFDFD"/>
<path transform="translate(952,391)" d="m0 0 2 4 4 20 1 9-3-1-1-3v-10l-2-6-1-2z" fill="#2D1615"/>
<path transform="translate(276,395)" d="m0 0 4 1 5 7-1 4-3-1-2-5h-2l-2-5z" fill="#FDFDFD"/>
<path transform="translate(741,165)" d="m0 0 5 1 2 3-1 5-5-1-2-2z" fill="#FDFDFD"/>
<path transform="translate(500,438)" d="m0 0 4 2v4l-4 2h-6l2-5z" fill="#FCE517"/>
<path transform="translate(648,883)" d="m0 0h5v5l-5 4-3-2 1-5z" fill="#FDFDFD"/>
<path transform="translate(492,448)" d="m0 0h3l-1 5-4 6h-3l1-7z" fill="#FCE517"/>
<path transform="translate(720,245)" d="m0 0 5 1 1 4-3 5h-3l-1-9z" fill="#271515"/>
<path transform="translate(285,246)" d="m0 0 7 2 2 5-1 2-5-1-3-4z" fill="#FDFDFD"/>
<path transform="translate(286,106)" d="m0 0h4l-1 3h-2v2l-5 3h-5l2-4z" fill="#2B1615"/>
<path transform="translate(387,910)" d="m0 0 9 1-1 5h-6l-3-3z" fill="#FDFDFD"/>
<path transform="translate(394,515)" d="m0 0h9l3 3-2 2h-7l-3-2z" fill="#FCE517"/>
<path transform="translate(525,429)" d="m0 0h5l1 6-1 1h-6l-1-5z" fill="#FCE51B"/>
<path transform="translate(650,350)" d="m0 0h2l-1 5-3 7-4 2-2 4v-3z" fill="#FDFDFD"/>
<path transform="translate(571,911)" d="m0 0h6l-1 5-4 2-4-1 1-5z" fill="#FDFDFD"/>
<path transform="translate(538,431)" d="m0 0 7 1 1 5-5 1-3-2z" fill="#FCE517"/>
<path transform="translate(680,298)" d="m0 0h5v6l-6 1-2-1 1-4z" fill="#FDFDFD"/>
<path transform="translate(628,352)" d="m0 0 5 1v2l-7 2-5 5-3-1 5-6z" fill="#FDFDFD"/>
<path transform="translate(309,273)" d="m0 0 12 3 10 2v2l-15-2-7-3z" fill="#3A1715"/>
<path transform="translate(685,360)" d="m0 0h9l-2 5h-7l-1-4z" fill="#1D1415"/>
<path transform="translate(597,321)" d="m0 0h3l1 5-3 3-6-1 2-4z" fill="#321615"/>
<path transform="translate(282,284)" d="m0 0h5l2 2v3l-3 2-4-1-1-5z" fill="#FDFDFD"/>
<path transform="translate(595,98)" d="m0 0h3v8h-6l-1-3z" fill="#FDFDFD"/>
<path transform="translate(533,280)" d="m0 0h5l-1 4-1 1h-8l-1-3z" fill="#FDFDFD"/>
<path transform="translate(313,893)" d="m0 0 6 2v5l-7-1-1-3z" fill="#FDFDFD"/>
<path transform="translate(711,150)" d="m0 0h2v6l-3 3-4-2 1-4z" fill="#FDFDFD"/>
<path transform="translate(292,127)" d="m0 0 3 1 4 5v3h-6z" fill="#FDFDFD"/>
<path transform="translate(314,367)" d="m0 0 2 1v11l-5-3 1-7z" fill="#FDFDFD"/>
<path transform="translate(465,322)" d="m0 0 4 1 6 3 2 4-4-1-7-3z" fill="#FDFDFD"/>
<path transform="translate(770,192)" d="m0 0 1 2-5 8-4-1 1-4z" fill="#FDFDFD"/>
<path transform="translate(232,167)" d="m0 0 4 1 1 6-5 1-1-1v-6z" fill="#FDFDFD"/>
<path transform="translate(192,120)" d="m0 0 2 1-10 10-6 3-2-1z" fill="#471E1A"/>
<path transform="translate(567,309)" d="m0 0h6l3 3-2 3-5-1-2-2z" fill="#FDFDFD"/>
<path transform="translate(519,470)" d="m0 0h5l1 5-5 1-3-2z" fill="#FCE517"/>
<path transform="translate(634,336)" d="m0 0 3 1-2 4-4 3-2 4-2-1 1-5h2l2-5z" fill="#FDFDFD"/>
<path transform="translate(496,308)" d="m0 0 6 3 1 5-5-1-4-5z" fill="#FDFDFD"/>
<path transform="translate(421,920)" d="m0 0 2 2v8l-6-2 2-5z" fill="#FDFDFD"/>
<path transform="translate(105,318)" d="m0 0 7 1 1 5-4 1-4-4z" fill="#FDFDFD"/>
<path transform="translate(473,270)" d="m0 0 2 1 1 9 3 7h-4l-2-9z" fill="#FDFDFD"/>
<path transform="translate(549,299)" d="m0 0 7 1-1 4-7 1v-5z" fill="#FDFDFD"/>
<path transform="translate(307,289)" d="m0 0 2 2 5 2-1 3-5 1-3-5z" fill="#FDFDFD"/>
<path transform="translate(661,288)" d="m0 0h3l-1 5-5 2-2-4z" fill="#FDFDFD"/>
<path transform="translate(473,256)" d="m0 0h2v8h2l-2 4-4-1 1-7z" fill="#FDFDFD"/>
<path transform="translate(485,301)" d="m0 0h2l-1 4-4 6h-2v-6z" fill="#FDFDFD"/>
<path transform="translate(251,288)" d="m0 0h3v3l-7 4-3-1 1-4z" fill="#FDFDFD"/>
<path transform="translate(667,303)" d="m0 0 8 1-1 4h-7l-1-4z" fill="#FDFDFD"/>
<path transform="translate(286,302)" d="m0 0 6 2v3l-5 2-2-3z" fill="#FDFDFD"/>
<path transform="translate(316,883)" d="m0 0 6 1 2 3-4 2-5-3z" fill="#FDFDFD"/>
<path transform="translate(424,291)" d="m0 0 6 2v2l5 2 2 3h-4l-2-4-6-2z" fill="#FDFDFD"/>
<path transform="translate(289,292)" d="m0 0 3 1 1 5-5 1-2-1 1-5z" fill="#FDFDFD"/>
<path transform="translate(621,296)" d="m0 0h7l-1 4-6 1-1-4z" fill="#FDFDFD"/>
<path transform="translate(540,480)" d="m0 0 5 1v4h-6v-4z" fill="#FCE517"/>
<path transform="translate(310,299)" d="m0 0 7 2-2 3h-7l1-4z" fill="#FDFDFD"/>
<path transform="translate(650,299)" d="m0 0h3l-1 5-5 2-1-4z" fill="#FDFDFD"/>
<path transform="translate(299,296)" d="m0 0 5 1-4 4h-5l1-4z" fill="#FDFDFD"/>
<path transform="translate(550,287)" d="m0 0 5 2-1 4h-5l-1-4z" fill="#FDFDFD"/>
<path transform="translate(715,272)" d="m0 0 7 1 1 4-7-1-2-3z" fill="#FDFDFD"/>
<path transform="translate(529,478)" d="m0 0 5 1-1 5-4-1-2-4z" fill="#FCE517"/>
<path transform="translate(616,364)" d="m0 0 1 2-6 7h-3l2-5z" fill="#FDFDFD"/>
<path transform="translate(293,311)" d="m0 0h4l1 3-2 2h-6l1-4z" fill="#FDFDFD"/>
<path transform="translate(537,266)" d="m0 0 6 1 2 4-3 1-5-3z" fill="#FDFDFD"/>
<path transform="translate(500,353)" d="m0 0 1 2-3 6-5 1 2-5z" fill="#251515"/>
<path transform="translate(695,274)" d="m0 0h4l-1 5-5 1 1-5z" fill="#FDFDFD"/>
<path transform="translate(303,313)" d="m0 0 4 1 1 5-6-1z" fill="#FDFDFD"/>
<path transform="translate(399,336)" d="m0 0 4 2 2 4-9-1 1-4z" fill="#FBF5F4"/>
<path transform="translate(299,305)" d="m0 0 4 1 1 5h-5l-1-5z" fill="#FDFDFD"/>
<path transform="translate(538,290)" d="m0 0h2v6l-4 2-1-3z" fill="#FDFDFD"/>
<path transform="translate(236,280)" d="m0 0h9v3h-8z" fill="#FDFDFD"/>
<path transform="translate(622,302)" d="m0 0 5 2-1 4h-4z" fill="#FDFDFD"/>
<path transform="translate(355,271)" d="m0 0 13 2-3 2-12-2z" fill="#2E1615"/>
</svg>
